<svg id="e5804c4a-0056-4f77-b1ba-80ccbfd03f63" data-name="Layer 1" xmlns="http://www.w3.org/2000/svg" viewBox="0 0 1220 2031">
  <style>
    .i75fytkvck64dru4yjrft {
      fill: black;
    }
    @media (prefers-color-scheme: dark) {
      .i75fytkvck64dru4yjrft {
        fill: white;
      }
    }
  </style>
  <path class="i75fytkvck64dru4yjrft" d="M543.4455,1106.5862q-54.971,57.9377-107.4677,83.1724-52.51,25.2348-113.21,25.2414-123.0545,0-214.9352-103.8621Q15.9451,1007.2892,15.9516,844.2414q0-163.028,101.7251-298.3448,101.712-135.31,261.696-135.31,99.2509,0,164.0728,63.7241V334.4483q0-129.9179-6.1528-159.7242-6.1527-29.793-19.2785-40.5517Q504.8819,123.427,485.2,123.4138q-21.3426,0-56.6051,13.2414L417.93,107.69,641.8891,15h36.9164V891.4138q0,133.2546,6.1527,162.6207Q691.1109,1083.42,704.6469,1095a47.0229,47.0229,0,0,0,31.584,11.5862q22.15,0,59.0662-14.069l9.024,28.9656L581.1822,1215H543.4455Zm0-58.0407V657.9248q-4.937-56.2692-29.6212-102.6207-24.6843-46.3381-65.4134-69.931-40.7291-23.5863-79.4011-23.5862-72.4138,0-129.1812,65.3793-74.8822,86.0822-74.8757,251.5862,0,167.1791,72.4073,256.1379,72.3941,88.9722,161.2707,88.9655Q473.4935,1123.8558,543.4455,1048.5455Z"/>
  <path class="i75fytkvck64dru4yjrft" d="M678.6051,921.5111q54.9709-57.9377,107.4676-83.1724,52.51-25.2348,113.21-25.2414,123.0546,0,214.9353,103.862,91.8873,103.8489,91.8807,266.8966,0,163.0278-101.7251,298.3448-101.712,135.31-261.696,135.31-99.2508,0-164.0727-63.7242V1693.649q0,129.9179,6.1527,159.7241,6.1527,29.7932,19.2785,40.5518,13.1325,10.7453,32.8146,10.7586,21.3426,0,56.6051-13.2414l10.6647,28.9655-223.9593,92.69H543.2451V1136.6835q0-133.2546-6.1528-162.6207-6.1527-29.3859-19.6887-40.9655a47.0229,47.0229,0,0,0-31.584-11.5862q-22.15,0-59.0662,14.0689l-9.024-28.9655,223.1389-93.5172h37.7368Zm0,58.0407v390.6207q4.9368,56.2692,29.6211,102.6207,24.6843,46.3382,65.4134,69.931,40.729,23.5861,79.4012,23.5862,72.4138,0,129.1811-65.3793,74.8822-86.0822,74.8757-251.5862,0-167.1791-72.4073-256.1379-72.394-88.9722-161.2707-88.9656Q748.5572,904.2414,678.6051,979.5518Z"/>
</svg>